<?xml version="1.0" encoding="utf-8"?>
<!-- Generator: Adobe Illustrator 18.0.0, SVG Export Plug-In . SVG Version: 6.00 Build 0)  -->
<!DOCTYPE svg PUBLIC "-//W3C//DTD SVG 1.1//EN" "http://www.w3.org/Graphics/SVG/1.1/DTD/svg11.dtd">
<svg version="1.1" id="Layer_1" xmlns="http://www.w3.org/2000/svg" xmlns:xlink="http://www.w3.org/1999/xlink" x="0px" y="0px"
	 viewBox="0 0 125.6 125.6" style="enable-background:new 0 0 125.6 125.6;" xml:space="preserve">
<style type="text/css">
	.st0{fill:#523852;}
	.st1{fill:#290D29;}
	.st2{fill:#FBF9A4;}
	.st3{fill:#E9E9E9;}
	.st4{fill:#354C59;}
	.st5{fill:#78B0D2;}
	.st6{fill:#0F2138;}
	.st7{fill:#FFFFFF;}
</style>
<g>
	<circle class="st0" cx="63.4" cy="63.1" r="62.7"/>
	<path class="st1" d="M123.7,45.8l-16.3-10.6v22H21.2v40.2l43.5,28.4c34.1-0.7,61.5-28.5,61.5-62.7
		C126.2,57.1,125.3,51.3,123.7,45.8z"/>
	<g>
		<rect x="27.1" y="30.8" class="st2" width="13.2" height="3.5"/>
		<rect x="87.6" y="30.8" class="st2" width="13.2" height="3.5"/>
		<path class="st3" d="M110.5,92.7c0,3.2-2.6,5.9-5.9,5.9h-80c-3.2,0-5.9-2.6-5.9-5.9V40.2c0-3.2,2.6-5.9,5.9-5.9h80
			c3.2,0,5.9,2.6,5.9,5.9V92.7z"/>
		<path class="st4" d="M110.5,69.6V43.5c0-3.2-2.6-5.9-5.9-5.9h-80c-3.2,0-5.9,2.6-5.9,5.9v26.1H110.5z"/>
		<path class="st5" d="M110.5,66.2V40.2c0-3.2-2.6-5.9-5.9-5.9h-80c-3.2,0-5.9,2.6-5.9,5.9v26.1H110.5z"/>
		<path class="st6" d="M82,67.3c0,3.2-2.6,5.9-5.9,5.9H53.5c-3.2,0-5.9-2.6-5.9-5.9v-0.2c0-3.2,2.6-5.9,5.9-5.9h22.6
			c3.2,0,5.9,2.6,5.9,5.9V67.3z"/>
		<path class="st7" d="M72.9,67.2c0,1.5-1.2,2.8-2.8,2.8H59.4c-1.5,0-2.8-1.2-2.8-2.8v-0.1c0-1.5,1.2-2.8,2.8-2.8h10.7
			C71.7,64.4,72.9,65.6,72.9,67.2L72.9,67.2z"/>
		<polygon class="st5" points="54.2,40.5 54.2,27.1 72.7,27.1 72.7,40.5 80,40.5 80,19.8 46.9,19.8 46.9,40.5 		"/>
	</g>
</g>
</svg>
