<?xml version="1.0" encoding="utf-8"?>
<!-- Generator: Adobe Illustrator 18.0.0, SVG Export Plug-In . SVG Version: 6.00 Build 0)  -->
<!DOCTYPE svg PUBLIC "-//W3C//DTD SVG 1.1//EN" "http://www.w3.org/Graphics/SVG/1.1/DTD/svg11.dtd">
<svg version="1.1" id="Layer_1" xmlns="http://www.w3.org/2000/svg" xmlns:xlink="http://www.w3.org/1999/xlink" x="0px" y="0px"
	 viewBox="0 0 125.6 125.6" style="enable-background:new 0 0 125.6 125.6;" xml:space="preserve">
<style type="text/css">
	.st0{fill:#89C33F;}
	.st1{fill:#5A9312;}
	.st2{fill:#375D70;}
	.st3{fill:#000412;}
	.st4{fill:#D0BAB3;}
	.st5{fill:#FFFFF3;}
	.st6{fill:#EFF3F3;}
	.st7{fill:#DB3D2D;}
	.st8{fill:#002237;}
</style>
<g>
	<g>
		<circle class="st0" cx="62.9" cy="62.9" r="62.8"/>
		<g>
			<path class="st1" d="M125.7,62.9c0-7.1-1.2-13.9-3.3-20.2L89.9,21.9v3.8h-2v47.9H40.1v31.2l31.7,20.3
				C102.3,120.7,125.7,94.5,125.7,62.9z"/>
		</g>
	</g>
	<g>
		<g>
			<g>
				<g>
					<path class="st2" d="M64.2,26.6c-21.4,0-38.7,17.3-38.7,38.7c0,21.4,17.3,38.7,38.7,38.7c21.4,0,38.7-17.3,38.7-38.7
						C102.9,44,85.6,26.6,64.2,26.6z M64.2,96.6c-17.3,0-31.2-14-31.2-31.2s14-31.2,31.2-31.2c17.3,0,31.2,14,31.2,31.2
						S81.4,96.6,64.2,96.6z"/>
					<path class="st3" d="M64.2,26.6v7.5c17.3,0,31.2,14,31.2,31.2s-14,31.2-31.2,31.2v7.5c21.4,0,38.7-17.3,38.7-38.7
						C102.9,44,85.6,26.7,64.2,26.6z"/>
					<circle class="st4" cx="64.2" cy="65.4" r="31.2"/>
					<circle class="st5" cx="64.2" cy="65.4" r="28.2"/>
					<path class="st6" d="M64.2,37.2c0,0-0.1,0-0.1,0v56.5c0,0,0.1,0,0.1,0c15.6,0,28.2-12.6,28.2-28.2
						C92.4,49.8,79.8,37.2,64.2,37.2z"/>
				</g>
				<path class="st7" d="M65.1,85.9l-0.2-19.8l-1.2,0l0.2,19.8c0,0.3,0.3,0.6,0.6,0.6C64.8,86.5,65.1,86.2,65.1,85.9z"/>
				<circle class="st8" cx="64.2" cy="65.3" r="3"/>
				<path class="st8" d="M82,56.1l-17.7,8.4l0.5,1.1l17.7-8.4c0.3-0.1,0.4-0.5,0.3-0.8C82.7,56,82.3,55.9,82,56.1z"/>
				<path class="st8" d="M64,63.6c0.5,0.5,0.5,1.3,0,1.8l0,0c-0.5,0.5-1.3,0.5-1.8,0L48.9,52.1c-0.5-0.5-0.5-1.3,0-1.8l0,0
					c0.5-0.5,1.3-0.5,1.8,0L64,63.6z"/>
				<circle class="st3" cx="64.2" cy="65.3" r="2.1"/>
			</g>
			<path class="st2" d="M45.1,24.1c-2.6-3-7.1-3.3-10.1-0.8l-6,5.2c-3,2.6-3.3,7.1-0.8,10.1l2.4,2.8l5.4-4.7l2.7,3.1l5.8-5l-2.7-3.1
				l5.7-4.9L45.1,24.1z"/>
			<path class="st3" d="M81.5,24.2c2.3-3.2,6.8-3.9,10-1.6l6.5,4.7c3.2,2.3,3.9,6.8,1.6,10l-2.2,3l-5.8-4.2l-2.4,3.4L83,35l2.4-3.4
				l-6.1-4.4L81.5,24.2z"/>
			<path class="st2" d="M46.2,103.2c-1.1,2.1-3.7,2.8-5.8,1.7l0,0c-2.1-1.1-2.8-3.7-1.7-5.8l2-3.6c1.1-2.1,3.7-2.8,5.8-1.7l0,0
				c2.1,1.1,2.8,3.7,1.7,5.8L46.2,103.2z"/>
			<path class="st3" d="M79.5,104.7c1.1,2.1,3.7,2.8,5.8,1.7l0,0c2.1-1.1,2.8-3.7,1.7-5.8l-2-3.6c-1.1-2.1-3.7-2.8-5.8-1.7l0,0
				c-2.1,1.1-2.8,3.7-1.7,5.8L79.5,104.7z"/>
		</g>
		<circle class="st3" cx="81.8" cy="83.2" r="1.5"/>
		<circle class="st3" cx="46.3" cy="47.7" r="1.5"/>
		<circle class="st3" cx="46.3" cy="83.2" r="1.5"/>
		<circle class="st3" cx="81.8" cy="47.7" r="1.5"/>
		<circle class="st3" cx="38.9" cy="65.5" r="1.5"/>
		<circle class="st3" cx="89.1" cy="65.5" r="1.5"/>
		<circle class="st3" cx="64" cy="40.4" r="1.5"/>
		<circle class="st3" cx="64" cy="90.6" r="1.5"/>
		<path class="st3" d="M64,21.5c-0.1,0-0.1,0-0.2,0v11.6c0.1,0,0.1,0,0.2,0c1.7,0,3.1-1.4,3.1-3.1v-5.4C67.2,22.9,65.8,21.5,64,21.5
			z"/>
		<path class="st2" d="M64.1,21.5C64.1,21.5,64.1,21.5,64.1,21.5c-1.8,0-3.2,1.4-3.2,3.1V30c0,1.7,1.4,3.1,3.1,3.1c0,0,0,0,0.1,0
			V21.5z"/>
	</g>
</g>
</svg>
