<?xml version="1.0" encoding="utf-8"?>
<!-- Generator: Adobe Illustrator 18.0.0, SVG Export Plug-In . SVG Version: 6.00 Build 0)  -->
<!DOCTYPE svg PUBLIC "-//W3C//DTD SVG 1.1//EN" "http://www.w3.org/Graphics/SVG/1.1/DTD/svg11.dtd">
<svg version="1.1" id="Layer_1" xmlns="http://www.w3.org/2000/svg" xmlns:xlink="http://www.w3.org/1999/xlink" x="0px" y="0px"
	 viewBox="0 0 125.6 125.6" style="enable-background:new 0 0 125.6 125.6;" xml:space="preserve">
<style type="text/css">
	.st0{fill:#FD7513;}
	.st1{fill:#EE5A28;}
	.st2{fill:#2B2C39;}
	.st3{fill:#161822;}
	.st4{fill:#FFFFF3;}
	.st5{fill:#E6E5CB;}
	.st6{fill:#2AA7DE;}
	.st7{fill:#AE1E3A;}
	.st8{fill:#F89500;}
</style>
<g>
	<g>
		<g>
			<circle class="st0" cx="62.8" cy="62.8" r="62.8"/>
		</g>
	</g>
	<path class="st1" d="M123.6,46.9L88.9,25.4l0.7,56.3H67v20.5H34.3l35.9,23.1c31.2-3.6,55.5-30.2,55.5-62.4
		C125.6,57.3,124.9,52,123.6,46.9z"/>
	<g>
		<g>
			<path class="st2" d="M92.7,32.4v-2.3c0-2.8-2.3-5-5-5H37.9c-2.8,0-5,2.3-5,5v2.3H92.7z"/>
		</g>
		<g>
			<path class="st3" d="M87.7,25H62.5v7.4h30.3v-2.3C92.7,27.3,90.5,25,87.7,25z"/>
		</g>
		<g>
			<path class="st4" d="M32.9,32.1v66.4c0,2.8,2.3,5,5,5h49.8c2.8,0,5-2.3,5-5V32.1H32.9z"/>
		</g>
		<g>
			<path class="st5" d="M62.7,32.1v71.5h25c2.8,0,5-2.3,5-5V32.1H62.7z"/>
		</g>
		<rect x="37.4" y="33.9" class="st6" width="50.7" height="3.4"/>
		<rect x="37.5" y="40.2" class="st6" width="50.6" height="12.3"/>
		<g>
			<rect x="37.5" y="56.7" class="st7" width="11.8" height="11.8"/>
			<rect x="56.9" y="56.7" class="st8" width="11.8" height="11.8"/>
			<rect x="76.3" y="56.7" class="st2" width="11.8" height="11.8"/>
		</g>
		<g>
			<rect x="37.4" y="73.4" class="st6" width="11.8" height="3.4"/>
			<rect x="37.4" y="80.5" class="st6" width="9.3" height="3.4"/>
			<rect x="37.5" y="87.7" class="st6" width="5.6" height="3.4"/>
			<rect x="55.4" y="73.4" class="st6" width="11.8" height="3.4"/>
			<rect x="55.4" y="80.5" class="st6" width="7.8" height="3.4"/>
			<rect x="55.4" y="87.7" class="st6" width="11.8" height="3.4"/>
			<rect x="37.4" y="95" class="st6" width="50.7" height="3.4"/>
			<rect x="75.7" y="73.4" class="st6" width="8.3" height="3.4"/>
			<rect x="75.7" y="80.5" class="st6" width="12.4" height="3.4"/>
			<rect x="75.7" y="87.7" class="st6" width="8.5" height="3.4"/>
		</g>
	</g>
</g>
</svg>
