<?xml version="1.0" encoding="utf-8"?>
<!-- Generator: Adobe Illustrator 18.0.0, SVG Export Plug-In . SVG Version: 6.00 Build 0)  -->
<!DOCTYPE svg PUBLIC "-//W3C//DTD SVG 1.1//EN" "http://www.w3.org/Graphics/SVG/1.1/DTD/svg11.dtd">
<svg version="1.1" id="Layer_1" xmlns="http://www.w3.org/2000/svg" xmlns:xlink="http://www.w3.org/1999/xlink" x="0px" y="0px"
	 viewBox="0 0 125.6 125.6" style="enable-background:new 0 0 125.6 125.6;" xml:space="preserve">
<style type="text/css">
	.st0{fill:#FB1541;}
	.st1{fill:#A11F00;}
	.st2{fill:#152137;}
	.st3{fill:#173057;}
	.st4{fill:#F1F1DF;}
	.st5{fill:#FD3000;}
	.st6{fill:#B90B00;}
	.st7{fill:#FDA329;}
	.st8{fill:#F37B01;}
	.st9{fill:#FFFFF3;}
</style>
<g>
	<circle class="st0" cx="62.6" cy="63.1" r="62.7"/>
	<g>
		<g>
			<path class="st1" d="M120.7,39.3l-30.6-20v54.2H81v30.4l-45.5,0.6l32.2,21.1C100,123,125.4,96,125.4,63.1
				C125.4,54.6,123.7,46.6,120.7,39.3z"/>
		</g>
	</g>
	<g>
		<path class="st2" d="M92,100.7c0,2.5-2,4.5-4.5,4.5H37.8c-2.5,0-4.5-2-4.5-4.5V22.8c0-2.5,2-4.5,4.5-4.5h49.7c2.5,0,4.5,2,4.5,4.5
			V100.7z"/>
		<path class="st3" d="M87.5,18.3H62.7v86.9h24.8c2.5,0,4.5-2,4.5-4.5V22.8C92,20.3,90,18.3,87.5,18.3z"/>
		<rect x="39.8" y="24.7" class="st4" width="45.8" height="65.9"/>
		<rect x="54.6" y="20.8" class="st5" width="16.2" height="1.8"/>
		<rect x="62.6" y="20.8" class="st6" width="8.1" height="1.8"/>
		<path class="st7" d="M67.1,97.4c0,2.4-2,4.4-4.4,4.4l0,0c-2.4,0-4.4-2-4.4-4.4l0,0c0-2.4,2-4.4,4.4-4.4l0,0
			C65.1,93,67.1,95,67.1,97.4L67.1,97.4z"/>
		<path class="st8" d="M62.8,93c0,0-0.1,0-0.1,0v8.8c0,0,0.1,0,0.1,0c2.4,0,4.4-2,4.4-4.4C67.2,95,65.2,93,62.8,93z"/>
		<rect x="62.6" y="24.7" class="st9" width="22.9" height="65.9"/>
	</g>
</g>
</svg>
